<svg xmlns="http://www.w3.org/2000/svg" xmlns:xlink="http://www.w3.org/1999/xlink" width="1080" zoomAndPan="magnify" viewBox="0 0 810 809.999993" height="1080" preserveAspectRatio="xMidYMid meet" version="1.0"><path fill="rgb(88.62915%, 58.039856%, 9.01947%)" d="M 40.007812 666.371094 C 39.683594 666.207031 39.359375 666.046875 39.035156 665.722656 L 38.550781 665.398438 C 14.917969 651.480469 0.351562 621.859375 0.351562 580.101562 C 0.351562 495.453125 60.238281 391.707031 133.5625 349.464844 C 173.703125 326.320312 209.960938 326.15625 234.398438 344.933594 L 312.417969 389.28125 L 341.875 463.40625 C 325.527344 597.421875 260.621094 652.289062 225.496094 688.703125 L 126.441406 716.382812 Z M 584.664062 451.917969 L 689.386719 426.503906 C 724.671875 390.089844 793.464844 331.5 801.71875 195.382812 L 770.804688 124.976562 L 692.625 80.46875 C 668.183594 61.855469 631.925781 61.855469 591.785156 85 C 518.464844 127.242188 458.574219 231.152344 458.574219 315.636719 C 458.574219 357.394531 473.144531 387.015625 496.773438 401.09375 L 497.261719 401.417969 C 497.582031 401.582031 497.90625 401.742188 498.230469 402.066406 Z M 584.664062 451.917969 " fill-opacity="1" fill-rule="nonzero"/><path fill="rgb(82.749939%, 51.368713%, 5.879211%)" d="M 48.261719 434.4375 L 154.765625 495.941406 L 124.011719 513.742188 L 32.722656 460.980469 C 37.578125 451.917969 42.757812 443.175781 48.261719 434.4375 Z M 66.066406 409.835938 L 158.8125 463.40625 L 190.375 451.429688 L 83.546875 389.765625 C 77.394531 396.078125 71.570312 402.714844 66.066406 409.835938 Z M 11.84375 511.316406 L 101.511719 563.109375 L 133.074219 550.96875 L 21.070312 486.230469 C 17.507812 494.644531 14.433594 502.898438 11.84375 511.316406 Z M 104.265625 370.179688 L 199.113281 425.050781 L 231 417.441406 L 123.851562 355.613281 C 117.214844 359.824219 110.738281 364.839844 104.265625 370.179688 Z M 118.183594 600.171875 L 5.53125 535.109375 C 3.75 543.039062 2.453125 551.132812 1.644531 558.898438 L 86.296875 607.78125 Z M 143.433594 344.125 L 245.566406 403.039062 L 268.066406 395.429688 L 164.636719 335.707031 C 157.679688 337.8125 150.71875 340.5625 143.433594 344.125 Z M 115.269531 647.757812 L 0.351562 581.398438 C 0.351562 589.003906 1 596.289062 1.96875 602.921875 L 92.773438 655.363281 Z M 184.707031 331.824219 L 283.765625 388.957031 L 307.074219 388.957031 L 211.414062 333.765625 C 203.160156 331.5 194.257812 330.851562 184.707031 331.824219 Z M 124.660156 685.628906 L 4.722656 616.195312 C 6.339844 622.183594 8.28125 627.847656 10.710938 633.027344 L 101.511719 685.46875 L 124.660156 685.46875 Z M 38.550781 665.558594 L 39.035156 665.882812 C 39.359375 666.046875 39.683594 666.207031 40.007812 666.53125 L 110.578125 707.316406 L 128.867188 707.316406 L 14.917969 641.445312 C 21.070312 651.804688 29.160156 659.894531 38.550781 665.558594 Z M 491.109375 196.675781 L 582.398438 249.441406 L 613.152344 231.636719 L 506.648438 170.132812 C 500.984375 178.710938 495.804688 187.613281 491.109375 196.675781 Z M 524.289062 145.53125 L 617.035156 199.105469 L 648.597656 187.128906 L 541.769531 125.460938 C 535.621094 131.613281 529.792969 138.410156 524.289062 145.53125 Z M 470.066406 246.851562 L 559.738281 298.644531 L 591.300781 286.667969 L 479.292969 221.925781 C 475.734375 230.179688 472.65625 238.597656 470.066406 246.851562 Z M 562.488281 105.714844 L 657.5 160.582031 L 689.386719 152.976562 L 582.238281 91.148438 C 575.4375 95.519531 568.964844 100.375 562.488281 105.714844 Z M 576.410156 335.867188 L 463.753906 270.804688 C 461.972656 278.734375 460.679688 286.828125 459.871094 294.597656 L 544.523438 343.476562 Z M 601.660156 79.820312 L 703.792969 138.734375 L 726.292969 131.128906 L 622.863281 71.402344 C 616.066406 73.507812 608.941406 76.257812 601.660156 79.820312 Z M 573.496094 383.292969 L 458.574219 316.933594 C 458.574219 324.539062 459.222656 331.824219 460.195312 338.457031 L 550.996094 390.898438 Z M 669.640625 69.300781 C 661.386719 67.195312 652.484375 66.546875 643.09375 67.359375 L 742.152344 124.492188 L 765.460938 124.492188 Z M 582.882812 421.164062 L 462.945312 351.890625 C 464.5625 357.878906 466.507812 363.546875 468.933594 368.726562 L 559.738281 421.164062 Z M 496.773438 401.257812 L 497.261719 401.582031 C 497.582031 401.742188 497.90625 401.90625 498.230469 402.226562 L 568.800781 443.015625 L 587.09375 443.015625 L 473.144531 377.304688 C 479.292969 387.335938 487.386719 395.59375 496.773438 401.257812 Z M 496.773438 401.257812 " fill-opacity="1" fill-rule="nonzero"/><path fill="rgb(99.609375%, 81.17981%, 27.839661%)" d="M 218.214844 398.34375 C 144.890625 440.585938 85.003906 544.496094 85.003906 628.980469 C 85.003906 713.46875 144.890625 748.105469 218.214844 705.859375 C 291.535156 663.617188 351.425781 559.710938 351.425781 475.222656 C 351.425781 390.574219 291.535156 355.9375 218.214844 398.34375 Z M 184.386719 583.5 C 184.386719 582.691406 184.707031 581.882812 185.195312 581.074219 C 185.679688 580.265625 186.488281 579.617188 187.621094 578.96875 L 208.824219 566.667969 L 208.824219 564.890625 L 219.347656 558.738281 L 219.347656 572.65625 L 198.144531 584.957031 C 197.011719 585.605469 196.199219 586.253906 195.714844 587.0625 C 195.230469 587.871094 194.90625 588.679688 194.90625 589.488281 C 194.90625 590.136719 195.066406 590.460938 195.390625 590.785156 L 185.195312 584.957031 L 185.03125 584.796875 C 184.546875 584.632812 184.386719 584.148438 184.386719 583.5 Z M 216.917969 554.855469 L 197.980469 565.859375 C 196.847656 566.507812 196.039062 567.15625 195.554688 567.964844 C 195.066406 568.773438 194.746094 569.582031 194.746094 570.230469 C 194.746094 570.878906 194.90625 571.363281 195.390625 571.523438 L 184.707031 565.535156 C 184.386719 565.210938 184.222656 564.886719 184.222656 564.242188 C 184.222656 563.433594 184.546875 562.785156 185.03125 561.976562 C 185.519531 561.167969 186.328125 560.519531 187.460938 559.871094 L 206.398438 548.867188 L 186.976562 527.015625 L 190.535156 524.910156 Z M 249.777344 555.824219 C 249.777344 555.824219 249.613281 555.664062 249.453125 555.664062 C 248.96875 555.5 248.15625 555.664062 247.023438 556.472656 L 225.820312 568.773438 L 225.820312 556.632812 L 236.503906 550.484375 C 237.636719 549.835938 238.445312 549.511719 238.933594 549.675781 C 238.933594 549.675781 239.09375 549.675781 239.09375 549.835938 C 239.253906 549.835938 249.777344 555.824219 249.777344 555.824219 Z M 243.625 583.5 C 243.625 583.5 243.464844 583.339844 243.464844 583.339844 Z M 239.902344 584.148438 L 225.984375 592.242188 L 225.984375 580.101562 L 229.382812 578.160156 C 231 577.1875 232.132812 576.867188 232.78125 577.1875 C 232.941406 577.1875 232.941406 577.351562 232.941406 577.351562 L 243.140625 583.179688 C 242.492188 583.015625 241.523438 583.339844 239.902344 584.148438 Z M 191.34375 601.46875 C 191.992188 600.335938 193.125 599.363281 194.746094 598.554688 L 208.664062 590.300781 L 208.664062 583.988281 L 219.183594 577.835938 L 219.183594 596.289062 L 205.265625 604.542969 C 203.648438 605.511719 202.511719 606.484375 201.867188 607.457031 C 201.21875 608.589844 200.894531 609.558594 200.894531 610.691406 C 200.894531 611.824219 201.21875 612.472656 201.867188 612.796875 L 191.34375 606.96875 C 190.699219 606.644531 190.375 606 190.375 604.867188 C 190.375 603.734375 190.699219 602.601562 191.34375 601.46875 Z M 236.503906 531.222656 C 237.636719 530.578125 238.445312 530.253906 238.933594 530.578125 C 238.933594 530.578125 239.09375 530.738281 239.09375 530.738281 L 249.613281 536.566406 C 249.613281 536.566406 249.613281 536.402344 249.453125 536.402344 C 248.96875 536.242188 248.15625 536.402344 247.023438 537.050781 L 227.925781 548.21875 L 235.046875 532.03125 Z M 226.308594 490.597656 C 225.820312 490.273438 225.660156 489.628906 225.660156 488.65625 C 225.660156 487.523438 225.984375 486.390625 226.628906 485.417969 C 227.277344 484.285156 228.410156 483.316406 230.03125 482.507812 L 247.835938 472.148438 C 249.453125 471.175781 250.585938 470.851562 251.234375 471.175781 C 251.234375 471.175781 251.394531 471.339844 251.394531 471.339844 L 261.917969 477.164062 C 261.917969 477.164062 261.753906 477.164062 261.753906 477.003906 C 261.105469 476.679688 259.972656 477.003906 258.355469 477.972656 L 240.550781 488.332031 C 238.933594 489.304688 237.800781 490.273438 237.152344 491.246094 C 236.503906 492.378906 236.179688 493.351562 236.179688 494.484375 C 236.179688 495.617188 236.503906 496.265625 237.152344 496.585938 C 237.800781 496.910156 238.933594 496.585938 240.550781 495.617188 L 247.023438 491.894531 L 222.746094 547.570312 L 214.003906 537.699219 L 233.105469 494.160156 Z M 172.730469 516.980469 C 173.378906 515.847656 174.511719 514.875 176.128906 514.066406 L 194.097656 503.546875 C 195.714844 502.574219 196.847656 502.253906 197.496094 502.574219 C 197.496094 502.574219 197.65625 502.574219 197.65625 502.738281 L 208.179688 508.566406 C 208.179688 508.566406 208.179688 508.566406 208.015625 508.566406 C 207.371094 508.242188 206.234375 508.566406 204.617188 509.535156 L 186.652344 520.054688 C 185.03125 521.027344 183.898438 522 183.253906 522.96875 C 182.605469 524.101562 182.28125 525.074219 182.28125 526.207031 C 182.28125 527.175781 182.605469 527.824219 183.089844 528.148438 L 172.40625 522.160156 C 171.921875 521.835938 171.597656 521.1875 171.597656 520.21875 C 171.597656 519.085938 172.082031 517.953125 172.730469 516.980469 Z M 218.214844 679.640625 C 177.261719 703.273438 141.332031 697.929688 122.230469 670.414062 C 142.464844 684.011719 171.4375 683.363281 203.484375 664.75 C 264.34375 629.628906 314.035156 543.523438 314.035156 473.28125 C 314.035156 450.460938 308.695312 432.007812 299.46875 418.738281 C 317.597656 431.039062 328.765625 454.992188 328.765625 488.171875 C 328.765625 558.414062 279.074219 644.519531 218.214844 679.640625 Z M 676.4375 133.878906 C 603.117188 176.121094 543.226562 280.03125 543.226562 364.515625 C 543.226562 449.003906 603.117188 483.640625 676.4375 441.394531 C 749.761719 399.152344 809.648438 295.40625 809.648438 210.757812 C 809.648438 126.109375 749.761719 91.636719 676.4375 133.878906 Z M 666.890625 348.007812 C 666.242188 347.523438 665.917969 346.550781 665.917969 344.609375 L 665.917969 333.28125 C 669.316406 332.792969 673.203125 331.5 677.246094 329.394531 L 677.246094 351.082031 C 677.246094 352.863281 677.570312 353.996094 678.21875 354.480469 C 678.21875 354.480469 678.21875 354.480469 678.382812 354.480469 L 666.890625 348.007812 C 667.050781 348.007812 667.050781 348.007812 666.890625 348.007812 Z M 681.78125 274.042969 C 673.523438 277.117188 668.183594 278.410156 665.59375 277.925781 C 662.519531 277.441406 660.738281 275.011719 660.578125 270.644531 C 663.167969 269.996094 666.402344 269.023438 670.449219 267.566406 C 678.703125 264.492188 684.207031 262.875 687.121094 262.710938 C 690.195312 262.386719 692.625 262.875 694.40625 264.007812 L 705.734375 270.480469 C 703.792969 269.347656 701.363281 268.863281 698.453125 269.1875 C 695.539062 269.511719 690.035156 271.128906 681.78125 274.042969 Z M 690.683594 235.519531 C 690.519531 235.519531 690.359375 235.359375 690.359375 235.199219 C 692.460938 234.710938 694.242188 234.710938 696.023438 235.035156 C 698.9375 235.519531 700.554688 237.140625 700.878906 239.730469 C 701.042969 241.023438 701.527344 241.832031 702.011719 242.15625 Z M 669.316406 313.695312 C 676.601562 309.324219 682.425781 303.984375 686.636719 297.671875 C 690.84375 291.359375 692.949219 285.53125 692.949219 280.191406 C 692.949219 279.382812 692.949219 278.574219 692.785156 277.765625 C 693.433594 277.601562 694.082031 277.441406 694.566406 277.441406 C 697.964844 277.117188 700.394531 277.601562 701.851562 279.222656 C 703.46875 280.839844 704.117188 283.265625 704.117188 286.667969 C 704.117188 291.84375 702.011719 297.671875 697.804688 304.144531 C 693.597656 310.621094 687.769531 315.960938 680.484375 320.167969 C 673.363281 324.378906 667.699219 325.996094 663.652344 325.1875 C 659.445312 324.378906 657.339844 322.433594 657.015625 319.523438 C 657.015625 319.199219 657.015625 318.875 656.855469 318.550781 C 660.578125 318.226562 664.621094 316.445312 669.316406 313.695312 Z M 689.550781 220.46875 C 689.550781 219.011719 689.875 217.71875 690.519531 216.585938 C 691.167969 215.453125 691.976562 214.640625 692.785156 214.15625 C 693.757812 213.671875 694.40625 213.507812 695.050781 213.832031 L 695.214844 213.832031 L 706.542969 220.308594 C 705.898438 219.984375 705.085938 219.984375 704.117188 220.628906 C 703.308594 221.117188 702.5 221.925781 701.851562 223.058594 C 701.203125 224.191406 700.878906 225.488281 700.878906 226.941406 C 697.804688 226.457031 695.050781 226.457031 692.785156 226.78125 C 690.519531 227.265625 687.605469 228.238281 684.046875 230.019531 L 684.046875 220.628906 C 684.046875 220.308594 684.046875 220.144531 684.046875 219.984375 C 685.664062 220.144531 687.445312 220.144531 689.550781 220.46875 Z M 649.085938 246.363281 C 653.292969 238.921875 659.121094 232.609375 666.078125 227.589844 L 666.078125 218.203125 C 666.078125 216.421875 666.402344 214.964844 667.050781 213.832031 C 667.699219 212.699219 668.507812 211.890625 669.480469 211.242188 C 670.449219 210.597656 671.257812 210.597656 671.90625 210.917969 L 682.75 217.230469 C 682.265625 217.070312 681.617188 217.230469 680.808594 217.71875 C 679.835938 218.363281 679.027344 219.175781 678.382812 220.308594 C 677.734375 221.441406 677.410156 222.898438 677.410156 224.675781 L 677.410156 234.066406 C 670.289062 239.082031 664.621094 245.394531 660.414062 252.839844 C 656.207031 260.285156 653.941406 267.242188 653.941406 273.554688 C 653.941406 279.222656 655.234375 282.78125 657.988281 284.5625 C 657.988281 284.5625 648.921875 279.382812 647.304688 278.410156 C 647.304688 278.410156 647.140625 278.410156 647.140625 278.25 C 647.140625 278.25 646.980469 278.25 646.980469 278.25 C 644.066406 276.46875 642.609375 272.746094 642.609375 266.921875 C 642.609375 260.609375 644.714844 253.808594 649.085938 246.363281 Z M 639.210938 317.257812 C 639.210938 315.476562 639.535156 314.019531 640.183594 312.886719 C 640.828125 311.753906 641.640625 310.945312 642.609375 310.296875 C 643.582031 309.8125 644.390625 309.648438 645.039062 309.972656 L 656.367188 316.445312 C 655.71875 316.125 654.910156 316.125 653.941406 316.769531 C 652.96875 317.417969 652.160156 318.226562 651.511719 319.359375 C 650.863281 320.492188 650.542969 321.949219 650.542969 323.730469 L 650.542969 338.136719 C 650.542969 339.914062 650.863281 341.046875 651.511719 341.371094 L 640.34375 334.898438 C 640.34375 334.898438 640.183594 334.898438 640.183594 334.898438 C 639.535156 334.574219 639.210938 333.441406 639.210938 331.660156 Z M 651.675781 341.535156 C 651.511719 341.535156 651.675781 341.535156 651.675781 341.535156 Z M 676.4375 415.339844 C 635.488281 438.96875 599.554688 433.628906 580.457031 406.113281 C 600.6875 419.707031 629.660156 419.0625 661.710938 400.449219 C 722.570312 365.324219 772.257812 279.222656 772.257812 208.976562 C 772.257812 186.15625 766.917969 167.707031 757.691406 154.433594 C 775.820312 166.734375 786.988281 190.6875 786.988281 223.867188 C 786.988281 294.109375 737.296875 380.214844 676.4375 415.339844 Z M 676.4375 415.339844 " fill-opacity="1" fill-rule="nonzero"/><path fill="rgb(36.079407%, 67.83905%, 36.079407%)" d="M 370.6875 414.851562 L 347.539062 361.601562 L 475.570312 287.636719 L 539.183594 303.824219 Z M 572.039062 297.1875 L 548.894531 283.914062 L 475.734375 269.832031 L 496.289062 290.390625 Z M 436.402344 450.945312 L 420.863281 441.882812 L 347.703125 540.449219 L 370.847656 553.722656 L 446.4375 518.113281 L 538.210938 470.851562 L 572.199219 399.152344 L 549.054688 385.882812 Z M 436.402344 450.945312 " fill-opacity="1" fill-rule="nonzero"/><path fill="rgb(30.198669%, 61.959839%, 30.198669%)" d="M 370.6875 448.839844 L 347.539062 435.570312 L 347.539062 361.601562 L 370.6875 374.875 L 498.714844 300.910156 L 475.570312 287.636719 L 475.570312 269.996094 L 498.714844 283.265625 L 571.878906 297.347656 L 498.714844 395.914062 L 480.589844 385.394531 Z M 443.847656 455.316406 L 370.6875 553.882812 L 443.847656 567.964844 L 443.847656 547.246094 L 571.878906 473.28125 L 571.878906 399.316406 L 443.847656 473.28125 Z M 443.847656 455.316406 " fill-opacity="1" fill-rule="nonzero"/></svg>