<svg xmlns="http://www.w3.org/2000/svg" xmlns:xlink="http://www.w3.org/1999/xlink" width="1080" zoomAndPan="magnify" viewBox="0 0 810 809.999993" height="1080" preserveAspectRatio="xMidYMid meet" version="1.0"><defs><clipPath id="id1"><path d="M 76.582031 0 L 682 0 L 682 798 L 76.582031 798 Z M 76.582031 0 " clip-rule="nonzero"/></clipPath></defs><g clip-path="url(#id1)"><path fill="rgb(7.058716%, 13.328552%, 61.569214%)" d="M 573.199219 642.613281 L 397.183594 748.164062 C 390.734375 751.871094 373.328125 754.609375 366.878906 750.902344 L 275.164062 695.144531 C 270.8125 692.726562 282.578125 684.832031 286.769531 682.414062 L 468.589844 577.507812 C 475.199219 573.640625 483.417969 573.640625 490.1875 577.507812 L 511.464844 589.753906 L 529.679688 582.824219 L 581.097656 606.515625 C 583.515625 607.964844 581.097656 619.40625 581.097656 621.824219 C 581.097656 624.078125 575.617188 641.160156 573.199219 642.613281 Z M 645.089844 3.179688 C 644.929688 3.179688 644.929688 3.019531 644.765625 3.019531 L 644.605469 2.855469 C 640.09375 0.441406 634.289062 0.117188 629.132812 3.019531 L 115.910156 297.59375 C 92.21875 311.132812 77.550781 336.433594 77.550781 363.664062 L 76.582031 758.316406 C 76.582031 766.050781 80.773438 772.335938 86.574219 775.71875 L 123.488281 797.152344 L 161.6875 744.296875 L 619.945312 481.304688 C 639.609375 470.023438 651.699219 449.074219 651.859375 426.351562 L 652.828125 63.769531 L 681.355469 24.128906 Z M 645.089844 3.179688 " fill-opacity="1" fill-rule="nonzero"/></g><path fill="rgb(1.959229%, 3.919983%, 18.818665%)" d="M 688.609375 37.34375 L 688.609375 446.980469 C 688.609375 469.699219 676.519531 490.648438 656.855469 501.929688 L 586.09375 542.699219 L 577.230469 596.683594 L 510.980469 586.046875 L 305.953125 704.332031 L 368.007812 739.945312 C 374.457031 743.652344 382.515625 743.652344 388.964844 739.945312 L 569.492188 635.84375 C 571.910156 634.394531 573.039062 632.136719 573.039062 629.71875 L 586.417969 632.941406 L 573.039062 642.773438 L 573.039062 653.730469 C 573.039062 655.824219 571.75 658.402344 569.492188 659.855469 L 388.964844 763.957031 C 382.515625 767.660156 374.457031 767.660156 368.007812 763.957031 L 286.609375 717.382812 C 286.125 717.0625 285.640625 716.738281 285.320312 716.417969 L 144.28125 797.796875 C 130.902344 805.53125 114.136719 795.863281 114.136719 780.390625 L 114.136719 385.582031 C 114.136719 358.347656 128.644531 333.046875 152.339844 319.351562 L 664.914062 23.644531 C 675.554688 17.523438 688.609375 25.09375 688.609375 37.34375 Z M 688.609375 37.34375 " fill-opacity="1" fill-rule="nonzero"/><path fill="rgb(13.729858%, 23.919678%, 100%)" d="M 728.261719 581.214844 L 728.261719 599.261719 C 728.261719 607.320312 722.941406 615.378906 712.464844 621.5 C 691.351562 633.75 656.695312 633.75 635.578125 621.5 C 631.550781 619.246094 628.328125 616.503906 625.746094 613.765625 C 624.78125 621.019531 619.621094 627.945312 610.113281 633.425781 C 599.957031 639.226562 586.738281 642.289062 573.363281 642.613281 L 573.363281 629.558594 C 573.363281 627.140625 572.234375 624.722656 569.816406 623.273438 L 511.464844 589.59375 C 511.304688 588.628906 511.304688 587.660156 511.304688 586.695312 L 511.304688 586.050781 L 586.257812 542.699219 C 589.320312 543.34375 592.382812 544.3125 595.445312 546.085938 C 597.699219 547.375 608.984375 555.59375 610.59375 557.042969 L 619.785156 568.804688 L 619.785156 586.855469 C 619.785156 588.949219 619.460938 591.042969 618.65625 593.140625 L 619.785156 593.140625 L 619.785156 581.214844 L 628.648438 569.449219 C 630.421875 568 637.03125 562.359375 639.125 561.070312 C 660.242188 548.824219 689.578125 549.308594 710.691406 561.554688 C 712.949219 562.84375 718.429688 569.449219 720.203125 570.738281 Z M 330.289062 737.6875 C 309.175781 725.441406 275.003906 726.730469 253.886719 738.976562 C 251.632812 740.265625 247.761719 748.808594 245.988281 750.257812 L 238.574219 757.347656 L 238.574219 775.398438 C 238.574219 783.453125 243.894531 791.511719 254.371094 797.636719 C 275.488281 809.882812 310.140625 809.882812 331.257812 797.636719 C 341.894531 791.511719 347.214844 783.292969 347.054688 775.234375 L 347.054688 757.347656 L 339.640625 748.808594 C 338.027344 747.355469 332.546875 738.976562 330.289062 737.6875 Z M 416.527344 658.242188 C 395.410156 645.996094 362.042969 644.707031 340.929688 656.953125 C 338.671875 658.242188 334 663.398438 332.226562 664.6875 L 324.648438 676.453125 L 324.648438 694.5 C 324.648438 702.558594 329.96875 710.617188 340.445312 716.738281 C 361.5625 728.988281 396.214844 728.988281 417.332031 716.738281 C 427.96875 710.617188 433.289062 702.398438 433.128906 694.339844 L 433.128906 676.453125 L 426.035156 667.75 C 424.425781 666.460938 418.621094 659.53125 416.527344 658.242188 Z M 668.460938 70.863281 C 668.460938 64.414062 661.53125 60.386719 655.890625 63.609375 L 521.621094 141.121094 C 525.8125 145.148438 527.261719 151.273438 528.066406 157.074219 C 529.519531 168.839844 528.390625 180.765625 524.683594 192.042969 C 523.070312 197.199219 520.8125 202.519531 521.941406 207.835938 C 522.910156 212.507812 526.292969 216.214844 528.875 220.246094 C 536.449219 232.007812 537.578125 247.640625 531.773438 260.371094 C 525.328125 274.390625 511.625 284.542969 507.113281 299.207031 C 502.4375 314.839844 509.371094 331.4375 517.105469 345.777344 C 525.003906 360.121094 534.03125 374.785156 534.03125 391.222656 C 534.03125 404.917969 527.261719 417.972656 518.074219 428.125 C 508.886719 438.277344 497.601562 446.171875 486.320312 453.90625 C 470.847656 464.542969 455.371094 475.019531 439.898438 485.652344 C 431.195312 491.617188 422.328125 497.742188 412.65625 502.414062 C 398.796875 509.183594 383.484375 512.886719 369.941406 520.300781 C 358.175781 526.90625 348.183594 536.253906 337.542969 544.472656 C 326.90625 552.691406 314.816406 559.941406 301.4375 561.554688 C 288.058594 563.164062 273.070312 557.527344 267.105469 545.441406 C 261.464844 533.835938 265.011719 520.140625 269.039062 507.890625 C 275.488281 489.039062 283.0625 470.667969 291.765625 452.78125 C 294.183594 447.785156 296.765625 441.5 293.539062 436.828125 C 290.960938 433.121094 285.964844 432.316406 282.417969 429.574219 C 278.550781 426.511719 276.9375 421.355469 275.488281 416.523438 C 273.390625 408.785156 271.136719 401.050781 269.039062 393.476562 C 265.976562 382.679688 263.238281 370.113281 269.84375 360.925781 C 275.003906 353.835938 285.640625 348.839844 284.511719 340.136719 C 284.03125 336.914062 282.097656 334.175781 280.324219 331.4375 C 271.136719 317.09375 269.84375 298.238281 275.96875 282.449219 L 166.847656 345.941406 C 149.117188 356.253906 138.15625 375.105469 138.15625 395.574219 L 138.15625 711.421875 L 259.207031 641.484375 L 423.941406 510.953125 L 543.058594 477.757812 L 668.300781 405.402344 L 668.300781 70.863281 Z M 668.460938 70.863281 " fill-opacity="1" fill-rule="nonzero"/><path fill="rgb(95.689392%, 96.469116%, 98.81897%)" d="M 407.015625 231.042969 L 400.246094 234.910156 L 402.824219 227.980469 C 403.308594 226.53125 403.792969 225.078125 404.113281 223.628906 C 404.277344 224.433594 404.757812 225.5625 405.242188 226.851562 Z M 289.511719 304.523438 C 290.15625 304.042969 290.640625 303.558594 291.121094 303.074219 C 291.605469 302.589844 291.929688 302.109375 292.25 301.464844 C 292.574219 300.820312 292.734375 300.171875 292.734375 299.527344 C 292.734375 298.722656 292.574219 298.238281 292.25 297.917969 C 291.929688 297.59375 291.445312 297.59375 290.800781 297.757812 C 290.15625 297.917969 289.1875 298.402344 287.898438 299.046875 L 283.386719 301.625 L 282.902344 308.390625 L 287.898438 305.492188 C 288.542969 305.167969 289.1875 304.6875 289.511719 304.523438 Z M 325.617188 510.953125 L 371.394531 484.527344 L 371.394531 345.777344 L 325.617188 372.207031 Z M 307.5625 283.414062 C 307.078125 282.125 306.597656 280.996094 306.433594 280.191406 C 306.113281 281.640625 305.628906 283.09375 305.144531 284.542969 L 302.566406 291.472656 L 309.335938 287.605469 Z M 290.15625 295.339844 C 290.800781 294.695312 291.285156 294.210938 291.765625 293.566406 C 292.089844 292.921875 292.410156 292.277344 292.410156 291.632812 C 292.410156 290.988281 292.25 290.503906 292.089844 290.183594 C 291.765625 289.859375 291.445312 289.859375 290.800781 290.019531 C 290.15625 290.183594 289.1875 290.667969 287.738281 291.472656 L 283.707031 293.726562 L 283.386719 299.691406 L 287.738281 297.273438 C 288.703125 296.304688 289.671875 295.660156 290.15625 295.339844 Z M 441.992188 282.609375 L 373.003906 322.410156 L 373.003906 342.878906 L 441.992188 303.074219 Z M 443.605469 302.269531 L 477.292969 282.769531 L 477.292969 262.304688 L 443.605469 281.804688 Z M 543.378906 79.078125 L 543.378906 478.242188 L 259.53125 641.96875 L 259.53125 242.964844 Z M 509.046875 163.039062 L 515.496094 159.332031 L 514.367188 176.574219 L 516.945312 175.125 L 518.074219 157.878906 L 524.683594 154.011719 L 524.84375 151.757812 L 509.207031 160.78125 Z M 489.382812 191.078125 L 491.960938 189.625 L 492.929688 174.316406 L 502.277344 183.664062 L 505.019531 182.054688 L 506.308594 162.554688 L 503.726562 164.003906 L 502.761719 179.3125 L 493.414062 169.96875 L 490.671875 171.578125 Z M 471.007812 201.710938 L 485.835938 193.171875 L 485.996094 190.914062 L 473.910156 198.007812 L 474.390625 191.398438 L 485.351562 185.113281 L 485.515625 182.859375 L 474.554688 189.144531 L 474.875 183.179688 L 486.480469 176.414062 L 486.644531 174.15625 L 472.296875 182.375 Z M 447.957031 215.089844 L 450.535156 213.636719 L 451.664062 197.039062 L 456.339844 210.414062 L 458.757812 209.125 L 465.527344 189.464844 L 464.558594 205.902344 L 467.140625 204.453125 L 468.429688 184.953125 L 464.882812 187.046875 L 459.242188 203.324219 C 458.757812 204.9375 458.273438 206.226562 457.953125 207.03125 C 457.789062 206.546875 457.46875 205.742188 457.144531 204.613281 L 453.277344 193.496094 L 449.410156 195.75 Z M 429.582031 225.722656 L 444.410156 217.183594 L 444.574219 214.925781 L 432.484375 222.015625 L 432.96875 215.410156 L 443.929688 209.125 L 444.089844 206.871094 L 433.128906 213.152344 L 433.449219 207.191406 L 445.054688 200.421875 L 445.21875 198.167969 L 430.871094 206.386719 Z M 412.335938 219.117188 L 418.78125 215.410156 L 417.65625 232.652344 L 420.234375 231.203125 L 421.363281 213.960938 L 427.96875 210.09375 L 428.132812 207.835938 L 412.496094 216.859375 Z M 402.988281 222.179688 L 394.121094 246.1875 L 396.859375 244.578125 L 399.441406 237.328125 L 407.660156 232.492188 L 409.59375 237.003906 L 412.496094 235.230469 L 405.566406 220.40625 Z M 381.066406 237.164062 L 387.511719 233.457031 L 386.382812 250.703125 L 388.964844 249.25 L 390.089844 232.007812 L 396.699219 228.140625 L 396.859375 225.886719 L 381.226562 234.910156 Z M 375.746094 251.828125 C 375.746094 252.472656 375.421875 253.117188 375.101562 253.761719 C 374.777344 254.40625 374.132812 255.214844 373.328125 256.019531 C 372.523438 256.824219 371.714844 257.46875 370.585938 257.953125 C 369.460938 258.597656 368.492188 258.921875 367.523438 259.082031 C 366.71875 259.242188 366.074219 259.082031 365.589844 258.757812 C 365.269531 258.4375 364.945312 257.792969 364.945312 256.824219 L 362.527344 258.4375 C 362.527344 259.726562 362.691406 260.691406 363.335938 261.335938 C 363.980469 261.980469 364.785156 262.144531 366.074219 261.980469 C 367.203125 261.820312 368.816406 261.175781 370.585938 260.210938 C 372.039062 259.402344 373.328125 258.4375 374.457031 257.308594 C 375.585938 256.179688 376.550781 254.890625 377.195312 253.601562 C 377.839844 252.3125 378.164062 251.183594 378.324219 250.21875 C 378.324219 249.089844 378.164062 248.445312 377.679688 247.960938 C 377.195312 247.480469 376.390625 247.316406 375.261719 247.480469 C 374.457031 247.640625 373.003906 247.960938 370.910156 248.769531 C 368.816406 249.574219 367.523438 249.894531 367.042969 249.734375 C 366.558594 249.574219 366.398438 249.089844 366.398438 248.445312 C 366.398438 247.640625 366.878906 246.671875 367.6875 245.707031 C 368.492188 244.738281 369.621094 243.773438 371.234375 242.804688 C 372.683594 242 373.8125 241.515625 374.617188 241.675781 C 375.421875 241.839844 375.746094 242.484375 375.746094 243.609375 L 378.324219 242 C 378.324219 240.871094 378.164062 240.066406 377.519531 239.421875 C 377.035156 238.9375 376.230469 238.617188 375.101562 238.9375 C 373.972656 239.097656 372.683594 239.582031 371.234375 240.550781 C 369.941406 241.355469 368.652344 242.320312 367.523438 243.289062 C 366.398438 244.417969 365.589844 245.542969 364.945312 246.671875 C 364.300781 247.800781 363.980469 248.929688 363.980469 249.894531 C 363.980469 250.863281 364.140625 251.507812 364.460938 251.992188 C 364.945312 252.472656 365.589844 252.636719 366.398438 252.636719 C 367.042969 252.636719 368.332031 252.3125 370.105469 251.667969 C 371.878906 251.023438 373.003906 250.703125 373.488281 250.539062 C 374.296875 250.378906 374.941406 250.378906 375.261719 250.703125 C 375.585938 250.703125 375.746094 251.183594 375.746094 251.828125 Z M 336.738281 279.386719 L 339.316406 277.933594 L 339.800781 271.167969 L 343.1875 266.171875 L 349.632812 271.972656 L 353.019531 270.039062 L 345.121094 263.433594 L 353.984375 250.703125 L 350.4375 252.796875 L 339.960938 268.105469 L 340.605469 258.4375 L 338.027344 259.886719 Z M 316.914062 290.828125 L 319.492188 289.375 L 320.457031 274.066406 L 329.808594 283.414062 L 332.546875 281.804688 L 333.835938 262.304688 L 331.257812 263.753906 L 330.289062 279.0625 L 320.941406 269.71875 L 318.203125 271.328125 Z M 296.441406 302.753906 L 299.179688 301.140625 L 301.761719 293.890625 L 309.980469 289.054688 L 311.914062 293.566406 L 314.816406 291.792969 L 307.886719 276.96875 L 305.144531 278.578125 Z M 280 312.261719 L 287.574219 307.910156 C 288.867188 307.101562 289.832031 306.457031 290.800781 305.652344 C 291.605469 305.007812 292.410156 304.203125 293.054688 303.398438 C 293.703125 302.589844 294.183594 301.785156 294.667969 300.65625 C 295.152344 299.691406 295.3125 298.722656 295.472656 297.757812 C 295.472656 296.628906 295.3125 295.824219 294.667969 295.339844 C 294.023438 294.855469 293.21875 294.855469 292.089844 295.179688 C 293.054688 294.210938 293.703125 293.246094 294.347656 292.117188 C 294.828125 291.148438 295.152344 290.183594 295.152344 289.375 C 295.152344 288.410156 294.992188 287.765625 294.507812 287.28125 C 294.023438 286.796875 293.378906 286.636719 292.410156 286.636719 C 291.445312 286.796875 290.316406 287.28125 288.867188 288.085938 L 281.449219 292.4375 Z M 478.90625 281.804688 L 478.90625 261.335938 L 525.488281 234.425781 L 524.683594 232.976562 L 277.421875 375.589844 L 278.226562 377.039062 L 324.003906 350.613281 L 324.003906 371.078125 L 277.421875 397.988281 L 278.226562 399.441406 L 324.003906 373.011719 L 324.003906 511.761719 L 277.421875 538.671875 L 278.226562 540.121094 L 525.488281 397.507812 L 524.683594 396.054688 L 478.90625 422.484375 L 478.90625 283.738281 L 525.488281 256.824219 L 524.683594 255.375 Z M 443.605469 442.949219 L 477.292969 423.453125 L 477.292969 284.703125 L 443.605469 304.203125 Z M 325.617188 370.273438 L 371.394531 343.84375 L 371.394531 323.378906 L 325.617188 349.808594 Z M 441.992188 305.007812 L 373.003906 344.8125 L 373.003906 483.558594 L 442.15625 443.59375 L 441.992188 443.59375 Z M 441.992188 305.007812 " fill-opacity="1" fill-rule="nonzero"/><path fill="rgb(36.079407%, 71.369934%, 97.648621%)" d="M 417.332031 655.019531 C 396.214844 642.773438 361.5625 642.773438 340.445312 655.019531 C 319.328125 667.265625 319.328125 687.25 340.445312 699.335938 C 361.5625 711.421875 396.214844 711.582031 417.332031 699.335938 C 438.449219 687.089844 438.449219 667.105469 417.332031 655.019531 Z M 349.792969 676.613281 C 349.3125 676.9375 348.667969 677.097656 348.183594 677.097656 C 347.699219 677.097656 347.214844 676.9375 346.894531 676.613281 C 346.410156 676.292969 346.25 676.128906 346.25 675.808594 L 346.25 672.585938 C 346.25 672.90625 346.410156 673.230469 346.894531 673.390625 C 347.375 673.714844 347.699219 673.875 348.183594 673.875 C 348.667969 673.875 349.148438 673.710938 349.792969 673.390625 L 351.085938 672.585938 L 376.875 678.0625 L 372.84375 680.320312 L 350.921875 675.648438 Z M 353.824219 671.132812 L 356.082031 669.84375 C 356.5625 669.523438 356.886719 669.199219 356.886719 668.878906 L 356.886719 671.777344 Z M 375.421875 661.304688 C 375.421875 661.304688 375.261719 661.304688 375.421875 661.304688 C 375.261719 661.304688 375.421875 661.464844 375.421875 661.304688 C 375.421875 661.789062 375.261719 662.109375 374.617188 662.269531 L 374.457031 662.433594 L 373.167969 660.015625 L 374.457031 659.210938 C 374.941406 658.886719 375.101562 658.726562 375.261719 658.566406 C 375.261719 659.210938 375.261719 661.304688 375.421875 661.304688 Z M 377.519531 676.292969 L 375.90625 675.96875 L 370.585938 664.6875 L 368.332031 665.976562 C 367.847656 666.300781 367.203125 666.460938 366.71875 666.460938 C 366.234375 666.460938 365.753906 666.300781 365.429688 665.976562 C 364.945312 665.65625 364.785156 665.496094 364.785156 665.171875 L 364.785156 661.949219 C 364.785156 662.269531 364.945312 662.59375 365.429688 662.753906 C 365.914062 663.078125 366.234375 663.238281 366.71875 663.238281 C 367.203125 663.238281 367.6875 663.078125 368.332031 662.753906 L 370.585938 661.464844 Z M 371.230469 686.765625 C 370.910156 686.765625 370.585938 686.605469 370.265625 686.445312 C 369.941406 686.28125 369.78125 686.121094 369.78125 685.800781 L 369.78125 682.574219 C 369.78125 682.738281 369.941406 683.058594 370.265625 683.21875 C 370.585938 683.382812 370.910156 683.542969 371.230469 683.542969 C 371.554688 683.542969 371.878906 683.382812 372.359375 683.21875 L 379.613281 679.03125 L 384.773438 682.414062 L 382.191406 683.863281 L 379.613281 682.253906 L 372.359375 686.445312 C 371.878906 686.765625 371.554688 686.765625 371.230469 686.765625 Z M 389.769531 676.128906 C 389.769531 676.292969 389.609375 676.613281 389.285156 676.773438 L 384.609375 679.515625 L 382.03125 677.902344 L 389.285156 673.714844 C 389.609375 673.550781 389.769531 673.230469 389.769531 673.066406 Z M 396.214844 678.226562 C 396.539062 678.0625 396.699219 677.742188 396.699219 677.582031 L 396.699219 680.804688 C 396.699219 680.964844 396.539062 681.285156 396.214844 681.449219 L 391.542969 684.1875 L 388.964844 682.574219 Z M 379.292969 691.117188 C 378.96875 691.277344 378.484375 691.4375 378.164062 691.4375 C 377.839844 691.4375 377.519531 691.277344 377.195312 691.117188 C 376.875 690.957031 376.710938 690.792969 376.710938 690.472656 L 376.710938 687.25 C 376.710938 687.410156 376.875 687.734375 377.195312 687.894531 C 377.519531 688.054688 377.839844 688.214844 378.164062 688.214844 C 378.484375 688.214844 378.96875 688.054688 379.292969 687.894531 L 386.546875 683.703125 L 393.316406 688.054688 L 390.734375 689.503906 L 386.546875 686.765625 Z M 404.113281 688.054688 C 404.113281 688.378906 403.953125 688.699219 403.308594 689.023438 L 391.378906 695.953125 C 390.898438 696.273438 390.253906 696.433594 389.769531 696.433594 C 389.285156 696.433594 388.800781 696.273438 388.480469 695.953125 C 387.996094 695.628906 387.835938 695.46875 387.835938 695.144531 L 387.835938 691.921875 C 387.835938 692.246094 387.996094 692.566406 388.480469 692.726562 C 388.800781 693.050781 389.285156 693.050781 389.769531 693.210938 C 390.253906 693.210938 390.734375 693.050781 391.378906 692.726562 L 403.308594 685.800781 C 403.792969 685.476562 404.113281 685.15625 404.113281 684.832031 Z M 425.070312 679.191406 C 424.261719 673.066406 419.75 667.105469 411.691406 662.433594 C 393.636719 651.957031 364.140625 651.957031 346.085938 662.433594 C 338.027344 667.105469 333.515625 673.066406 332.707031 679.191406 C 331.742188 671.617188 336.09375 663.882812 346.085938 658.082031 C 364.140625 647.605469 393.636719 647.605469 411.691406 658.082031 C 421.683594 663.882812 426.199219 671.777344 425.070312 679.191406 Z M 712.304688 559.621094 C 691.1875 547.375 656.535156 547.375 635.417969 559.621094 C 625.910156 565.101562 620.75 572.191406 619.785156 579.28125 C 619.785156 579.28125 619.621094 579.121094 619.621094 579.121094 L 619.621094 587.015625 C 619.621094 595.074219 614.304688 603.128906 603.824219 609.253906 C 592.058594 616.023438 576.261719 619.085938 560.789062 618.277344 L 569.652344 623.433594 C 570.460938 623.917969 571.265625 624.5625 571.75 625.207031 C 585.613281 625.207031 599.472656 622.144531 610.113281 616.023438 C 619.621094 610.542969 624.78125 603.453125 625.746094 596.363281 C 628.164062 599.101562 631.550781 601.679688 635.578125 604.097656 C 656.695312 616.34375 691.351562 616.34375 712.464844 604.097656 C 733.582031 591.6875 733.582031 571.867188 712.304688 559.621094 Z M 665.078125 596.523438 L 665.078125 599.746094 C 665.078125 600.070312 664.914062 600.390625 664.433594 600.550781 C 664.109375 600.875 663.625 600.875 663.144531 601.035156 C 662.660156 601.035156 662.175781 600.875 661.53125 600.550781 L 649.601562 593.621094 C 649.121094 593.300781 648.796875 592.976562 648.796875 592.65625 L 648.796875 589.433594 C 648.796875 589.753906 648.957031 590.078125 649.601562 590.398438 L 661.53125 597.328125 C 662.015625 597.652344 662.660156 597.8125 663.144531 597.8125 C 663.625 597.8125 664.109375 597.652344 664.433594 597.328125 C 664.753906 597.007812 665.078125 596.683594 665.078125 596.523438 Z M 678.292969 567.035156 C 677.8125 566.710938 677.488281 566.390625 677.488281 566.066406 C 677.488281 566.066406 677.488281 565.90625 677.488281 565.90625 C 677.488281 565.90625 677.488281 563.648438 677.488281 563.164062 C 677.648438 563.328125 677.8125 563.648438 678.292969 563.808594 L 679.582031 564.617188 L 678.457031 567.035156 Z M 696.832031 574.605469 L 699.085938 575.898438 L 696.023438 576.542969 L 696.023438 573.640625 C 696.023438 573.960938 696.347656 574.285156 696.832031 574.605469 Z M 687.964844 569.773438 C 687.964844 570.09375 687.804688 570.417969 687.320312 570.578125 C 686.835938 570.902344 686.515625 571.0625 686.03125 571.0625 C 685.546875 571.0625 685.0625 570.902344 684.417969 570.578125 L 682.164062 569.289062 L 676.84375 580.570312 L 675.230469 580.890625 L 682.164062 566.066406 L 684.417969 567.355469 C 684.902344 567.679688 685.546875 567.839844 686.03125 567.839844 C 686.515625 567.839844 687 567.679688 687.320312 567.355469 C 687.804688 567.035156 687.964844 566.871094 687.964844 566.550781 Z M 663.144531 577.667969 C 663.144531 577.832031 663.304688 578.152344 663.625 578.3125 L 670.878906 582.503906 L 668.300781 584.113281 L 663.625 581.375 C 663.304688 581.214844 663.144531 580.890625 663.144531 580.730469 Z M 656.535156 582.824219 L 663.789062 587.015625 L 661.207031 588.628906 L 656.535156 585.886719 C 656.210938 585.726562 656.050781 585.402344 656.050781 585.242188 L 656.050781 582.019531 C 656.050781 582.34375 656.210938 582.664062 656.535156 582.824219 Z M 676.039062 595.074219 C 676.039062 595.234375 675.875 595.554688 675.554688 595.71875 C 675.230469 595.878906 674.910156 596.039062 674.585938 596.039062 C 674.265625 596.039062 673.78125 595.878906 673.457031 595.71875 L 666.207031 591.527344 L 662.015625 594.265625 L 659.433594 592.816406 L 666.207031 588.464844 L 673.457031 592.65625 C 673.78125 592.816406 674.265625 592.976562 674.585938 592.976562 C 674.910156 592.976562 675.230469 592.816406 675.554688 592.65625 C 675.875 592.496094 676.039062 592.332031 676.039062 592.011719 Z M 683.128906 590.5625 C 683.128906 590.722656 682.96875 591.042969 682.648438 591.207031 C 682.324219 591.367188 682 591.527344 681.679688 591.527344 C 681.355469 591.527344 681.035156 591.367188 680.550781 591.207031 L 673.296875 587.015625 L 670.71875 588.628906 L 668.140625 587.175781 L 673.296875 583.792969 L 680.550781 587.984375 C 680.875 588.144531 681.355469 588.304688 681.679688 588.304688 C 682 588.304688 682.324219 588.144531 682.648438 587.984375 C 682.96875 587.820312 683.128906 587.660156 683.128906 587.339844 Z M 706.664062 580.410156 C 706.664062 580.730469 706.503906 581.054688 706.019531 581.214844 C 705.535156 581.535156 705.210938 581.699219 704.730469 581.699219 C 704.246094 581.699219 703.761719 581.535156 703.117188 581.214844 L 701.828125 580.410156 L 679.90625 585.082031 L 675.875 582.824219 L 701.667969 577.347656 L 702.957031 578.152344 C 703.441406 578.476562 704.085938 578.636719 704.566406 578.636719 C 705.050781 578.636719 705.535156 578.476562 705.859375 578.152344 C 706.339844 577.832031 706.503906 577.667969 706.503906 577.347656 L 706.503906 580.410156 Z M 720.203125 583.953125 C 719.398438 577.832031 714.882812 571.867188 706.824219 567.195312 C 688.773438 556.71875 659.273438 556.71875 641.222656 567.195312 C 633.160156 571.867188 628.648438 577.832031 627.84375 583.953125 C 626.875 576.378906 631.226562 568.644531 641.222656 562.84375 C 659.273438 552.367188 688.773438 552.367188 706.824219 562.84375 C 716.65625 568.644531 721.171875 576.378906 720.203125 583.953125 Z M 331.417969 735.59375 C 310.304688 723.347656 275.648438 723.347656 254.53125 735.59375 C 233.417969 747.839844 233.417969 767.824219 254.53125 779.910156 C 275.648438 791.996094 310.304688 792.15625 331.417969 779.910156 C 352.535156 767.660156 352.535156 747.839844 331.417969 735.59375 Z M 263.882812 757.347656 C 263.398438 757.671875 262.753906 757.832031 262.269531 757.832031 C 261.785156 757.832031 261.300781 757.671875 260.980469 757.347656 C 260.496094 757.027344 260.335938 756.863281 260.335938 756.542969 L 260.335938 753.320312 C 260.335938 753.640625 260.496094 753.964844 260.980469 754.125 C 261.464844 754.449219 261.785156 754.609375 262.269531 754.609375 C 262.753906 754.609375 263.238281 754.449219 263.882812 754.125 L 265.171875 753.320312 L 290.960938 758.796875 L 286.929688 761.054688 L 265.011719 756.382812 Z M 267.75 751.871094 L 270.007812 750.582031 C 270.492188 750.257812 270.8125 749.9375 270.8125 749.613281 L 270.8125 752.515625 Z M 289.347656 742.039062 C 289.347656 742.523438 289.1875 742.84375 288.542969 743.007812 L 288.382812 743.167969 L 287.253906 740.75 L 288.542969 739.945312 C 289.027344 739.621094 289.1875 739.460938 289.347656 739.300781 C 289.347656 739.785156 289.347656 741.878906 289.347656 742.039062 Z M 291.445312 757.027344 L 289.832031 756.703125 L 284.511719 745.421875 L 282.257812 746.710938 C 281.773438 747.035156 281.128906 747.195312 280.644531 747.195312 C 280.160156 747.195312 279.679688 747.035156 279.355469 746.710938 C 278.871094 746.390625 278.710938 746.230469 278.710938 745.90625 L 278.710938 742.683594 C 278.710938 743.007812 278.871094 743.328125 279.355469 743.488281 C 279.839844 743.8125 280.160156 743.972656 280.644531 743.972656 C 281.128906 743.972656 281.613281 743.8125 282.257812 743.488281 L 284.511719 742.199219 Z M 285.160156 767.5 C 284.835938 767.5 284.511719 767.339844 284.191406 767.179688 C 283.867188 767.015625 283.707031 766.855469 283.707031 766.535156 L 283.707031 763.3125 C 283.707031 763.472656 283.867188 763.792969 284.191406 763.957031 C 284.511719 764.117188 284.835938 764.277344 285.160156 764.277344 C 285.480469 764.277344 285.804688 764.117188 286.285156 763.957031 L 293.539062 759.765625 L 298.699219 763.148438 L 296.117188 764.601562 L 293.539062 762.988281 L 286.285156 767.179688 C 285.964844 767.339844 285.480469 767.5 285.160156 767.5 Z M 303.855469 756.703125 C 303.855469 756.863281 303.695312 757.1875 303.371094 757.347656 L 298.699219 760.085938 L 296.117188 758.476562 L 303.371094 754.285156 C 303.695312 754.125 303.855469 753.804688 303.855469 753.640625 Z M 310.789062 761.378906 C 310.789062 761.539062 310.625 761.859375 310.304688 762.023438 L 305.628906 764.761719 L 303.050781 763.148438 L 310.304688 758.960938 C 310.625 758.796875 310.789062 758.476562 310.789062 758.316406 Z M 293.378906 771.691406 C 293.054688 771.851562 292.574219 772.011719 292.25 772.011719 C 291.929688 772.011719 291.605469 771.851562 291.285156 771.691406 C 290.960938 771.527344 290.800781 771.367188 290.800781 771.046875 L 290.800781 767.824219 C 290.800781 767.984375 290.960938 768.304688 291.285156 768.46875 C 291.605469 768.628906 291.929688 768.789062 292.25 768.789062 C 292.574219 768.789062 293.054688 768.628906 293.378906 768.46875 L 300.632812 764.277344 L 307.402344 768.628906 L 304.824219 770.078125 L 300.632812 767.339844 Z M 318.039062 768.628906 C 318.039062 768.949219 317.878906 769.273438 317.234375 769.59375 L 305.308594 776.523438 C 304.824219 776.847656 304.179688 777.007812 303.695312 777.007812 C 303.210938 777.007812 302.726562 776.847656 302.40625 776.523438 C 301.921875 776.203125 301.761719 776.042969 301.761719 775.71875 L 301.761719 772.496094 C 301.761719 772.820312 301.921875 773.140625 302.40625 773.300781 C 302.726562 773.625 303.210938 773.625 303.695312 773.785156 C 304.179688 773.785156 304.660156 773.625 305.308594 773.300781 L 317.234375 766.371094 C 317.71875 766.050781 318.039062 765.726562 318.039062 765.40625 Z M 339.15625 759.925781 C 338.351562 753.804688 333.835938 747.839844 325.777344 743.167969 C 307.722656 732.691406 278.226562 732.691406 260.175781 743.167969 C 252.113281 747.839844 247.601562 753.804688 246.796875 759.925781 C 245.828125 752.351562 250.179688 744.617188 260.175781 738.816406 C 278.226562 728.34375 307.722656 728.34375 325.777344 738.816406 C 335.769531 744.617188 340.125 752.351562 339.15625 759.925781 Z M 603.824219 591.527344 C 624.941406 579.28125 624.941406 559.296875 603.824219 547.210938 C 599.3125 544.632812 594.316406 542.699219 588.835938 541.089844 L 582.871094 544.472656 C 588.511719 545.761719 593.671875 547.695312 598.183594 550.273438 C 608.179688 556.074219 612.53125 563.8125 611.5625 571.382812 C 610.757812 565.261719 606.242188 559.296875 598.183594 554.625 C 592.21875 551.242188 584.96875 548.824219 577.230469 547.695312 L 571.105469 551.242188 L 570.300781 551.722656 L 570.945312 552.207031 L 569.816406 554.625 L 569.652344 554.464844 C 569.171875 554.140625 568.847656 553.820312 568.847656 553.496094 C 568.847656 553.496094 568.847656 553.335938 568.847656 553.335938 C 568.847656 553.335938 568.847656 552.851562 568.847656 552.367188 L 516.300781 582.664062 C 518.878906 585.726562 522.425781 588.628906 526.777344 591.207031 C 548.054688 603.773438 582.710938 603.773438 603.824219 591.527344 Z M 594.476562 565.746094 C 594.960938 566.066406 595.605469 566.226562 596.089844 566.226562 C 596.574219 566.226562 597.054688 566.066406 597.378906 565.746094 C 597.863281 565.421875 598.023438 565.261719 598.023438 564.9375 L 598.023438 568.160156 C 598.023438 568.484375 597.863281 568.804688 597.378906 568.96875 C 596.894531 569.289062 596.574219 569.449219 596.089844 569.449219 C 595.605469 569.449219 595.121094 569.289062 594.476562 568.96875 L 593.1875 568.160156 L 571.265625 572.835938 L 567.234375 570.578125 L 593.027344 565.101562 Z M 587.546875 561.230469 C 587.546875 561.554688 587.867188 561.875 588.351562 562.199219 L 590.609375 563.488281 L 587.546875 564.132812 Z M 573.683594 553.820312 L 575.941406 555.109375 C 576.425781 555.429688 577.070312 555.59375 577.550781 555.59375 C 578.035156 555.59375 578.519531 555.429688 578.839844 555.109375 C 579.324219 554.785156 579.488281 554.625 579.488281 554.304688 L 579.488281 557.527344 C 579.488281 557.847656 579.324219 558.171875 578.839844 558.332031 C 578.359375 558.652344 578.035156 558.816406 577.550781 558.816406 C 577.070312 558.816406 576.585938 558.652344 575.941406 558.332031 L 573.683594 557.042969 L 568.363281 568.324219 L 566.753906 568.644531 Z M 572.070312 575.574219 C 572.394531 575.734375 572.878906 575.898438 573.199219 575.898438 C 573.523438 575.898438 573.84375 575.734375 574.167969 575.574219 C 574.488281 575.414062 574.652344 575.253906 574.652344 574.929688 L 574.652344 578.152344 C 574.652344 578.3125 574.488281 578.636719 574.167969 578.796875 C 573.84375 578.957031 573.523438 579.121094 573.199219 579.121094 C 572.878906 579.121094 572.554688 578.957031 572.070312 578.796875 L 564.820312 574.605469 L 562.238281 576.21875 L 559.660156 574.769531 L 564.820312 571.382812 Z M 554.503906 568.324219 L 554.503906 565.101562 C 554.503906 565.261719 554.664062 565.582031 554.984375 565.746094 L 562.238281 569.933594 L 559.660156 571.546875 L 554.984375 568.804688 C 554.664062 568.804688 554.503906 568.484375 554.503906 568.324219 Z M 547.410156 572.996094 L 547.410156 569.773438 C 547.410156 569.933594 547.570312 570.257812 547.894531 570.417969 L 555.148438 574.605469 L 552.566406 576.21875 L 547.894531 573.480469 C 547.734375 573.316406 547.410156 573.15625 547.410156 572.996094 Z M 556.4375 587.175781 C 556.4375 587.5 556.277344 587.820312 555.792969 587.984375 C 555.46875 588.304688 554.984375 588.304688 554.503906 588.464844 C 554.019531 588.464844 553.535156 588.304688 552.890625 587.984375 L 540.960938 581.054688 C 540.480469 580.730469 540.15625 580.410156 540.15625 580.085938 L 540.15625 576.863281 C 540.15625 577.1875 540.316406 577.507812 540.960938 577.832031 L 552.890625 584.757812 C 553.375 585.082031 554.019531 585.242188 554.503906 585.242188 C 554.984375 585.242188 555.46875 585.082031 555.792969 584.757812 C 556.277344 584.4375 556.4375 584.277344 556.4375 583.953125 Z M 557.566406 579.121094 L 553.375 581.859375 L 550.796875 580.410156 L 557.566406 576.058594 L 564.820312 580.246094 C 565.140625 580.410156 565.625 580.570312 565.945312 580.570312 C 566.269531 580.570312 566.589844 580.410156 566.914062 580.246094 C 567.238281 580.085938 567.398438 579.925781 567.398438 579.601562 L 567.398438 582.824219 C 567.398438 582.988281 567.234375 583.308594 566.914062 583.46875 C 566.589844 583.632812 566.269531 583.792969 565.945312 583.792969 C 565.625 583.792969 565.140625 583.632812 564.820312 583.46875 Z M 557.566406 579.121094 " fill-opacity="1" fill-rule="nonzero"/></svg>